<mxfile host="Electron" agent="Mozilla/5.0 (Windows NT 10.0; Win64; x64) AppleWebKit/537.36 (KHTML, like Gecko) draw.io/26.2.15 Chrome/134.0.6998.205 Electron/35.2.1 Safari/537.36" version="26.2.15">
  <diagram name="Page-1" id="1vEaz4BTll23tUe7aHnK">
    <mxGraphModel dx="1426" dy="849" grid="1" gridSize="10" guides="1" tooltips="1" connect="1" arrows="1" fold="1" page="1" pageScale="1" pageWidth="1100" pageHeight="850" math="0" shadow="0">
      <root>
        <mxCell id="0" />
        <mxCell id="1" parent="0" />
        <mxCell id="m5souKeyjKplHwAXcW8t-1" value="" style="shape=image;verticalLabelPosition=bottom;labelBackgroundColor=default;verticalAlign=top;aspect=fixed;imageAspect=0;image=data:image/png,iVBORw0KGgoAAAANSUhEUgAAAzYAAAHtCAYAAADLKeuEAAAAAXNSR0IArs4c6QAAAARnQU1BAACxjwv8YQUAAAAJcEhZcwAADsMAAA7DAcdvqGQAAGo+SURBVHhe7d0PYFTlne//78wwIVq1dK+1f9AScdAETLtLtTXYCpFgJVIKXYEL61pWXLLLvYuhi3MLUZYfNtobuEtku+wC0mL/0HtTtlguAgUp4q1AV8u2RQElReLf1rWVVothksn8znPOc2bOmZz5E8ifOZP3q304zznnmTN/Emfmk+c5zwkkYm0J0T464gZ5ve2QXsuMdt5o54123mjnjXbeaOeNdt5o54123mjnjXbeCrmdK9gAAAAAgB8F9RIAAAAAfItgAwAAAMD3CDYAAAAAfI9gAwAAAMD3CDYAAAAAfI9gAwAAAMD3CDYAAAAAfI9gAwAAAMD3XMFGXdEzH7TzRjtvtPNGO2+080Y7b7TzRjtvtPNGO2+081bI7QKJWFtC1wEAAADAlxiKBgAAAMD3CDYAAAAAfI9gAwAAAMD3CDYAAAAAfI9gAwAAAMD3CDYAAAAAfI9gAwAAAMD3CDYAAAAAfM8VbIrhiqMK7bzRzhvtvNHOG+280c4b7bzRzhvtvNHOG+26CyRibQldBwAAAABfYigaAAAAAN8j2AAAAADwPYINAAAAAN/jHBsAyCCR4O0RAIDeEAgEdK3vEGwADEqEFgAACsv5hh+CDYBBoSdBhtADAEDf6El46WnQIdgAKFr5BJRsbQg4AAD0jmwhJZ8Ak1cbgg2AYtSTwJKpLcEGAIDekSmYpG8/nwDkmhWtGK44qtDOG+280c6bX9upMOIMJMPLqsylvd3el75+xcgbXdu6utRStXOXj131Gc/t6YV23oV23oV23oV23oV23oV23qVQ2lmfq+6iXH7lONd6+n6b+jz32u5Ejw2AopHpzc65PXNdVwzpx8l0XAAAkF22HhnnLvd277qT13aCDYCikSuQ2Ouppbkwpe9TMt0eAABklx48vMKKe5u97L5PybWuEGwAFIVsIcSrrhapuvdSyVQHAACZuUNL97rX0m7m1V5x1pVu6wQbAH6XHji8wkhqaS7M9e773EslUx0AAGSWK5x4LVN1c9GtjeKsK659BBsAfpceONIDSmrp3pap7l6aC5O9DQAAZOcOI/bSqjiXmetm1bXNubQ51wk2AHzPGTiyBRRVd273XjdXXdudSwAA0J36nMwUOrovrbpzu/e6uera7lwqrjrBBoCfOQNHet1eVwt7PbVNTencpbepaSi7ktvtpbPuXAIAgOy8woizKMGge5u93b3N3JRct3nVCTYAfM0ZNryCiKpaS3dRQcY5p34q5NjFfTvzeMb/AABAbkYMsZY6kKhiB5lgMOhaGv9P1tNvY+937nMuleQ2gg0AP7NDh+IKIWbdHU5UsQNMPN5llHhyXYUcs67+52hv/N9c2scEAAC5OQOIqibDTCBo1kMha2kX1cZqm6mkH9OqK3Y9aP6r+fVK4+lo54123mjnrVjajYh8RtdSIUeFms7OTqPEJdbRIWdjMfn4Jyeby7Nn08tZR4nJp8ZN09uzF9p5F9p5F9p5F9p5F9p5F9p5l/5o195+NlnsbddXfcFYpj4/k/uMz9pYR0w6OjrNPzBec+1E/UfG1Oe0l49dlfo8z4QeGwC+5Xzzc74ZWvXUNruoN05nqHmo6V/N9gAAoH99uf6vJDwkLEOGhCQUCnXrubHqPeu1IdgA8C0VVmzuENM91Kiigo0KNB0dHdJhhJuV/+sRWf3wOn0EAADQHxbdUyd/99/+UkpKwq5wY4eV9HNx3CUValSxqbprKBoA+JEKLdmkwo1dF7P7GwAADAzrPFfrj4526f55bZVM0vcVZI/N8gf+Q/6/B36u11CMFn/5Wln5tev1Wt959bX/NMqb0n42prcMDqVDS+Ty4ZcZ5YN6S3Gy39Ccb3xW3Zq+2d6uilq3h6Gpcb1qjG/zmk302AAA0M9Uj03dX/9XGWp8XwmHhyR7bewemtTS3Wtj1a3eGcXenqwXYrAJlHxT11DMfvPqbLnsslK91rveefeM/HD7T+RXJ1/TWwanq0YOly9M+YxcfNGFektxcYcZu6TWneFG/VVI/XVIBRtzwgAj7K75+rcINgAA9DMVbO6+a4aUlg41h6MNCQ1JBpv0IWnpYccqqVCjimLWCznYJGJ/ZS5RPN58s10+dPn3zPq1Yz4ge390a6+HGxVq/vWRH8qZM+16y+B24YWl8jd3f6Eow40KLPYyVax1O9SkllawUb01HZ1WsPmnf/42wQYAgH6mgs1dc/9cB5sSM9SocNN9CuhM4YZggwLh7JHri3Dznf+9O9lTo77Ml18zwvhyP9RcHyzOnDkrx19oM0Oeonpu7vivt5j1YqICi71MldQwNLW06lYbexiaHWy+vvY7BBsAAPqZCjZz7/xissdGDUfzCjZWkLGugWPV7XBDsEGBsH++KtQ89/zbvRpu1Dk1Gx/dbtZVqFkwf7rxH02JuT7YtLfHZO36rclwM+9LU4runBs7zDjrqmfGWjp7bKywYwcbayjaWVn7r5vzCjYHfvxDeeGJZgn+odVYy/WWGZCuSyJyTU29jLv5C3obAACwqWDzpb+cbp5jo4KNPRxNhZbu4aZ7j409a5or1Kjt5howAFSYscPNF2fu1VvPj5oowKZ6agZrqFHUc1evgc352hQrFWCcrLCTCj3pJR8q1AT2z5W/KntSvvTxV43yWo7yqtlW3UbdFgAAdGf/AVIVc3a0RGrdXazPcae01SRXsCmWK43TzluhtVM9NCrcKE8feLNX7tc5+9m/rPu2BEo+ZpZs+uv5puuPds4hePZr48fn4cXZzn7zsznrV4+52Vzabcz/mXVzc07H96yWquGn9VoOQ/9EpHa3yEfGyw0fPS3P735Y7wAAAE7qs1iFm3E33Z76jNafz2qZbuQ1413b7fY2VXcFm9fbDuladrTzRjtv2do5h5/19v3+/aK7dS27/ny+TrTzlm+7104d1DVv9hveC8/t7fbGZ5d8BN85KR2JIdJ10ZUik34gMv6bIuFL9F6H0g+KTNkn8uHPSCJUKr+Pv1+63nlF7wQAwL/UMK+f/exneq07tc8eFpYv+7P4/+1rSX026z8+Ovfb5VfHnzS3Z8NQNAxC+6SuZIQEjFK3S29KsvaNW3NKr+fjXG6DvmK/Iaaz3hh7Hmzau0rk7c4/kdh1q6Tjdy8a75phkdF/q/dqpZcZoebHIu8fJYnd0+X3pw5JLDE0y33slDo9HtgudTv1LhfV7kZ5WJ3a0/qw3GjX89IqD9/ouI8bHza2DDbpr3NPXr8+1uOf57nQz7/bL5fj98pVt6W27axzvn6pcuPDD2c4tqX14RuNds77cN/edTPztXDs9/xdzX4M6/4c+113kP05OpnP13Hb7M+/zjiKw866tDbOg+vH3+318n4cQKF59tlnperGz3iGG7VN7VNtesI5FM0q+X1GZ9tHsMGgtv7BjYPwy97g4/UmmO2N0SkoCSkNvieBs7+V+LAx5sQA8oEKvddwwYdEPm+EmkuuksSP58i7v/+tGWpyGyfNJ1Jv4Osm682ZRO6RpxNPyz3G3ef8MmR+URwlR+9LHT/xqMjj6d+pikKuL4ap1/lEs0j9lwYq4KU9TtfPsy+Nk3HP1WYIzrlNXmf/Du2Q+Y7X8ul7rjb2qmN/1eO13ykr6w/oui3D77v6XR3VIjMd+3Zce1RO6N1u3sdQoWZU/bWyQ283jyG1GUNXRsZj+epz82W+4zllf/4OKtTUPud4fCdkZsuotHBzfj8LYCB98pOflINP/6RbuLFDjdqn2vSE9d9K5jDjtS0Xgk3BOC3NN33TnDHMKvuNjwb0paq750jVoRWysluvDfwu9SaZCjDn8gapDA2elUtC70jgp1HpeP2gxN84KHLVLJHyvzZCje6puXikGWpk9H+TC6duFxlygZobTcKBDn2U/tQqD3+pXq7dkRaWjC/S9+QKT0Uucs99Mv9Aizw+MMlmwMy8r1me+2rfBLprrxVpSX9Bdz4m6+cbAUGvZmb/rroD3uR16yTvX1UjjHzJDDXu20xed0KaPUNXZq2Ptxgv1r1y70yP55SV8Ty+ul7mu55HRO55VCXpla7P8r78WQB9LT3cnE+oUezPaOfnc2rdXDXZ6852mRBsMHiV18n9d+fqtfEaZubcpupzZb1RO7h4vDm8LVCyxPggs9vsMwKrNezNLDep+zrl2uY1hK11zfTUbczjpdm1xLHfOMZNqv10aebTstfFEyGjBKU9Fpf3fvmIxA42GK//VJHTL4jcttcINVcmQ4185CZ5Z39UAp1/lGFDTsuQQFwfpQccw3JufPhFvVGx/+KvlrXG79wBqR/lMbSl9XFpOTBfpmX7Zui4D1VSh9D3sTO1X+1zDvNJ/QW6e1vXX6dz3cfDqWE7mW9nD/XJdJscr0VW1jHr6tRz0/fTg9cl38dsHV9tT3+c+pj2YTyP4R5O2KOn5zTqHrnv2nr5kvMx95LR994n17q+vKsv+c9J873T9HoW+fyu5nLiqByYP80jCEXk6msP9CCgtIqZa26LSOQ2M9lk+VxIk+l5RG6TmeOekxedB+rDnwXQH5zh5nxCTV/xX7DZtd/4Amf3ajzGF7neNAhf28lfXnaevTbVsi62yfzLZNWq/ZKItRnloeSH7MHFc+XYUrXNKNuML7/GfY0qWSTyDb3t6DIRIxA5z/VRoWbUYpHVR602O+7eLLVmINJUqJm6WeZv08eI7ZeZcljvRG+LJcLy285LpT1xgbn+XtcF0vXWf4jcuCY5/MwONb/fXSehCz8oF4fb5Z34xWYoykx/yXV9kTW+7I6yelvUX6UelRYzNLtNlnXOYTFeY9jGjZZRutqd+z4SJ5rluVrHF2z1uL4q8qjat2O+rK8NyJeMR2K2NdYPuL7EOtpa47z0cfK4j6PTPI6pbucYlrRD5KvJG3ndJo/XwqH14a/K+nEzxfjuqh2Q50ar56b+2t+D16Xbc838mK3jq33ZHmeGY+xcKfXX7tC3z2O4YhaT1+0wAoj9mHvTZJk2f708Zv9SqC/5xjtS6jW2Ga9ft993g+N3NRWgna+7U/djtL74nLXLw6jR43QtD87HrQKJsdajTpuM/80dkKNp4+r67mcBgB6bgjFM6p/6K+NLql3GJ78cow9F5sm3Vo2V9VM9ekV6gQo766wZrUVuvUUHoNVSb3/oR0ZKpbE48qLda7NPVi4+7GrjDl+npPnBzSJ3b0odV8qkfqnx5Rp9QvW6lAbeM4saXpYo+YDEa/eKvP+abqFm6Meq5aLxK+XsFX8unUYgUqEoM+f5AnoYTeuL8ty4ZrlX/8dvDp2yqj1zINM5CgZ1H8ZRk39djtwj9813fvkyHtej94j56zd5mvllXP0V22SuO/8C7WjrPE4+92E/Secxzds5vrzWrjeein2jDLfJKXU88zyMp/XjNTmeW09el27PNfNjTh4/m0zHGDVaxq2vdfcOOXn28mRihMAd10r9yt5/p5t8b2p41c6VRji8z/ka24zXL/33XXH8rkbuedrYpwJgJt2PEbn6WmvXebKGod2mH3dEVKdNj16rjP/NjZPR3RJP3/0sgL7mHH7mHJZWKAg2GPQiCxcaH6Sb5YFCmNWs9aQcMRaVV5dZ64oOP6bWvdJySGT+1Gq9AX1NnSdzyZB3zKKGl73vE3eLdLwn8d1/Lh0fuE46ghfL7380X0Il75OSP4nIu08vk7MnrS8sPZv4speYw18cf0HvN62S5Y/nPTDfdRJ4rl6Y3DJ8oT4v6c+1Nx6zxzGMAPW0UX9UvmSGl25D0fT+vJ/b5HuludvJ66OkW8eGGbSulavzyGQmu4djpzr5PhXMc4pcbdxLvgE1AzP8PeYR6lJDy3I/R2uygwP1o3RIVCH4gIjncT1k+m/OHKKW4XX0/FkAhS39nJr0c24KgY+CjT65fupJva68LYtG20OnjLKgzdy6c4Fjm3kSflxOPvYTmXiVumCjNcTqnad/KQvv+L9SUfFdeV+y7TflA1e1yMQ7npXv/vI96TSPltLtuJ3vycFHntTH/aa87/J/kzlrfmM8Krf2N16X9V/eKZ/S7ay2/0c+Nf0n0rz799Ku23V/3E5d8p+Hnpd7pm+Vj33QbvNt+di4ndLwWOoYtp491vxf2+JULfeuGisHF6/L70OsL7W2iro6y/qpI4zX3S7WOTypXh0MiMAQCZf/pZT8/hcS3zZe3jn1tJz+9zVyeutU6XjpcQmfeETe/sFUee8X1uAxs5cnmP5fZg7qi96BerH/kGsOnbKqPRCRe+6zhpC5vjS1PiwPq3Xzy6Rz6JDxZXT9uZ7n4DiHwXmewbneh75daihXP8r5mLM/1/N6zDmOoXoyTjSPk+fOKwEo1gntz9Wq831s1rkoztniVK+L93krmajfuWulvrbe0euRj8lyrxrVNypXb1MWZu/Zeql1TRGtzk0aJfXX3qdP5s/xHNVkB+Oa5UQyJKpyQprz/gOB/d+c83lYQxul+d4Mr6PXzwIoXJkmCii0cOMKNoV+pfF/yPM0gjs264rpHfnu3VukcuYJ+fErqajym5+dlH9qeUuO/yomZ/Q25fQrf5QftxyRO67bIpM3WFcb9358b8s/Ttki4xa8lDzumTf/IN9bvEvu2PSuua68vesp+Xj5j6Tu67+WZxz3f+bNM/LM4ydk0ZSfyz69Ld0dyfs9Kzvv+b6U3fTvsubx0/LK7/VmI3q98uyv5cGZW+Tj97R1C1Qp+T3Wnir035f/tfoRXctOHS/Va+MMd2798jwiEakyFqnzZ9rkIx/5iLk8sNDRi+Mpvz+X98vz8NDb7YaXqVcqt/LKGl07V7rfRV27Zsj7ZMhlY6Xj8i/IkLH/Q4ZeNUXCw66U91d9RTpH3yPBy66Ti29+WC768Gi5OPRO6raeHEOPjGINN1JDVKxQorZ9SWYav5de1HkN+vZef/KdvE6fI5I6fuBLIreZ37CM+3DuM8/tONeejHFy7VGrNyFgnp9iH+dc78O6nfHEUo8755+0c7wWecv1mLM/19yPOdvjzHAMx3VR1DC6+3pjbmgjCDxqhCQncwYxqZdR+r5qnzO+5Pe010n1QIybn+Uxev2+q4fztHlOUa3eriZZeK750QzTYHsfQ03JfGJmS/LxBwJGqDngGLpoyPYcdz62XsZ1C2RqONo4WZ9fslF30O15yA41LXSWn5nHzwIoVNddd123UGOzw41qcy4m1MzWtewiFblHqwSML0zZ500bAKqHQFHnmqSoXoWtsijbRcnvvlkSa0eYvRW1Gb/TfkBWH50mU3Y8JqMWZ44CpgtGyo7fjpfJQ6zV7Md1uPpaOfzc9fJn7/5K7hj+lHz3Pb3dk3Ef+nwa9/FT21vXbpNP1P/WCmAfvly+uf9mmXulyBuPGQl55kmx+lJKZNETs+Ufb7Kyas8e6yjZn+dr2xvSf77eP+9z8+T/+w/Z//9+btbHf/ZPpXriF8x6IvayubRYM5kdWbXfFRask/at9KzOjbH2ebVN35ZPm3y3ebVxyrDfnFDguPG7vTV1/o4h/fWY8Nk/M+vFQP1V1V6minXBr1RJJC8AFo/HpbMzLh2dHRKLdUh7+1nZsLFFVj+8zjxOJt9YMkHuunK/yMcXS6LjHUlcNUfe+cWjMjQyVTp/e1SG/nq3dJb/rbzz43oJXTJCLvnUPZJ4eZe8++I22fryx2Xe13JfKdmfdkpd4Ksy+kR/XItloA2m51ok1PlHRgA9YA5F5OcGFJpF99TJrBm1Ulo6VEpKwmYJh8MSCgUlFAwZS1WCEgw6S8C1HggY3yGTf0yw/pDoo6Fo+uT6bSP1uqJCiuOEe88v3hfJ/Edvk5d/9yXdbpr5xS+ycFrqdrp0/G6G7F/yAX07w3tvywsZR/8Yx22ZLu+cMW73Wo182Xn+4oun5UXVEfLT12SrI9RM+foMeU/f13tv/rk8+2iFfC6SYxR+Z5usXKJDjWHSsioj1KiZlkLykWmfkPrkH7djsu5/v9Jt+Jwl12M919e2uFi9NumqZdrdIge37NVDGNRUzdbQsJT0NufDHha3yDUrXeuaJXpd35dz2FzrRhk31dVNiV5UPmmRHHxtmCSO/ou0XxCRs79/TWKv7JPOV5+UC0pE/nD6d+b1bS74+F+b17xJ/PENefetl+WZ1y6WilsW6aMA6FfJ848INcBgMggmD7hMps2+TK64yOOpnv2j/OyHv5Cl83fKpz7eIhXl/ybjH3L24rwtxzJ+UzWOO22YXDREZMgHr5A7vvg+vV35o7zxa2NROkQusTaYtt/7Q5l0x7OyYdvL8vy7F8gnZt8gu47eZPbKZGSEo23JcPQ+ufG6i3RdGSbXOELKmedOG1+7veTxWGGwQkW6yWs3yXxzmmZ1vouaqtma3tnJ3eb8ZliLLNwqJ1aJLBqdOs9m1JaITNEfzpPX6img9b7A6Fa5X00ljT4x7uYvSGL8JvnGiU/Lt765Th79p/vl334elP+z5QfyjY0b5Pv//kfZvOX/yubN35UtB96Ubz6yVrb8fIhcPHGNeVsAANA/BkGw8fb2U4fk05e3yHUzDstDm34tzxz/o7S+2aX39tzFl5TomsOnR8nfOHtH3ovJT1qOyPzb98p1I78j7x+9W5qfOat3evvNidOSyh1/lOWfcpzQbxTXcLNDpzNP8erg+VgHFXXtGe9zVlSo6H4+i9XeOudFDfXyur2zjbqOTeY2ubelHkeyPDXPNf5bhZvUfvu6OeVyDX+Z7BMqoMx7aK/U/fMJ+Zu1rWaZ989t8tf/fDK5XmeUuV9/1Wwz/2u7B0GomSzrBs1fwwfTcwUA/xqcwebdX8nfff6Y/Ls+CX/YzaNl66E/lzfevDNtONZ5GvJBafhRjSy9sUQu1JuczrS+Jotq9so3XtcbgHzsWiLjXFNT75O6qZulalVd9t4/AACAIjYog03nky87Tuh/vzQ8/GmZNvYS+fCwbFcJPzdq6Ffjvr+Q3775BXlqy6fkq3M/LGPer3cq7/1GHn3sD3qluw9dcZEjFKkJAuxzhbwKF/UcLA4uHm8NQzNLtskGAAAABgefB5u3peUH/ynvep8xn9GrL6tpWG3vyJNPWteB6Xz3tGzd9qa1uTfsekqunnJINvzkd3LaCFCfnTpGGtZPlmd3jZGP6yY5fXq4TL9A1yUmq+/aLc0/+YOctkewdXbIW0dflw33Py5XT/xFL5y8bju31xb94NaHjBDrHIrWfSgbAADAYOO/YHNxWD6sq8rB+7bLxRf27CKSZZ+41HGMLnn8734gFxi3D//JVvniI+d+XZfuEnJi9zGZf/MP5SOXfct6jEa5oOp5+aVuYTwh+dxNzikG0lx0pdz3wH9J9dq8/IYsuvnf5AMX6+d84Xfkg3/6I5n/P9+UEx26zbnqhdd2oJUOTZ0/dOZM6vylQMnHBk1xcr4GztcGAACg2Pgv2Nw4Wv5Hftfvy8w4RsNnvZ/6hRf050syRGqaJ0rUOcFAN0EpX/g52fK3F3qep9OreuO1HWCXD79M10SOv9AmF1zQwyu/F5H29pj5Gticrw0AAECxcX2L98cVyYdJ/bZaWXfXpRK5LPXwL7zsQrn+iqFm/Y6cl/QYJv99xxQZduFp+VBymNcQGTPrU/LTR7sP6cn38XVTfZ08+2il3HXbMNdjDYTOyM13jZVdL8yRPQs+YNyztzuS9ztUJj88Q049O06+OvNSKb/CcYsLSiQUflMWrhovP/+3yrQrJ7vlfh7Wa/v+C3+X8bV16pufb27Z2l0+/INy1cjhZv2dd8/IVx/4J3n8/7bIvr0/zFimTPm85/b04pd26qKcO350SNau32q+BkrkqsvN10YpxJ+bU77thpdV6Vp25ZU1ugYAAArNhJrZupZdpKJa1zILJGJt1uW7C4ga+qSoE+JRfNJ/vr3981Zf5v/1kR/KmTODt7fG6cILS+Vv7v6CXHxRn/f59atEwnrrUstUEenq6nKUhLlU++LxuHR2xqWjs0NisQ5pbz8rGza2yOqH15nHAQAA/WPRPXUya0atlJYOlZKSsFnC4bCEQkEJBUPGUpWgBIPOEnCtBwLGd0jjH7soBBv0u74ONooKNz/c/hP51cnX9JbBSfXUTL3txqILNUpvBZvlK5rM4wAAgP6xfFmUYIPi0B/Bxvbqa/9plDel/WxMbxkc1EQB6pwae/hZMSLYAADgTwQbFI3+DDYoXgQbAAD8qa+CTX9OAQYAAAAAfYJgAwAAAMD3CDYAAAAAfI9gAwAAAMD3ijjYnJbmm75pnphulf2yU+8pBDsX9OdjK+zXAgAAADhfrmBTLFckp935KZbn6263T+pKRhihboTU7dKbtI+O+DNz37g1p/QWb17H87rNwDzfffI+/fy8ivNx5n+/1xmBuKevS2a93W54WZWuZVdeWaNrAACg0Eyoma1r2UUqqnUtM1eweb3tkK5lRztvA9Zu3f80vrzavTGPSXOr3nGOiuZ1ydBu/YMbxfkSvd72j7qWXaE/3zuMUrVqvyRibd3KgYVlViND3ve7bpIsyqPpQD3f104d1LXsjh95QtcAAEChefKJ7+ladq3H9ulaZkU8FG2Y1D/1V8aXOruMl8l6z+DDa2GrunuOVB1aISvTem3g0LpRxqmenqmb9QYAAIDCxwU6B4g6x6b2Eb0iI2XH+YSNXfuNL6En9coHZPXRaVIf0asFKP3n2z8/bzV0bK4cWbVf7j8+XmqfWyYnnpon1suU2mf1bKSvK85tL5n19XqPZY7xM7xFHjPbbJKZW+amejtuUPc1UbbfND65TfWsOHtRlNY102XU4sN6TR3vIffvxK4lrrBRdcNYOWgcb/XRrcbP2+sxe3Pdj3GMqkNG3fN2+R9zIHCBTktTExcYBVC4otGorgEpfXWBTl8Gm/Y3XpdvrfyFPPLDt+SZVzrNbRdedqGMuX64zPnbSvmbW94vpca2TOGh2/Yzn5Jha38iC5pel5+/2SXDRl8u/7DhJqm/fqhI53tyMLlP5EOf+Kh8Za3ep2ULKa1rHjO+RL6t11KhI9Nt3nn6l9LwL22y52d/kJd/FZMzVgMZdsX7ZGzVSLkrOkZmffwCGWJuVZMCbM0+XOjumyWxdkSOIBWXk4/9hzSs/ZXs++kZ+c17xqYLSiTy6ctk7oJPyd9Ps15Pm+frt+mnct9Dr8iPjZ/HhZddIl+Ifkb+eeGHjGfc3UAHmwO1e2Xc6BVSua1N1t2ats/8Au/1hT7/NirwzLePnQwjY3UAMaqqR8R1/3bYsEOKeo1HuMOXPk7yuHLK+NmroGQf1+vxdJd+P/ZjIdj4lwo2jY2Neg0ACkdDQwPBBp76Ktj4bija27ueko+X/0jqvv7rZKhRzrx5Rp55/IQsmvJz4+tYT7wt/zhli4xb/KoZapTTR1+VRTfulOZnXpPouBbHvi75zS+MfTV75Ruvm0173W9+dlL+qeUtOe4INcrpV/4oP245Indct0Umbzitt/aCzrflG7e3yFUzj8j/flKHGuW9mLQ++arcN/MHUn77MTmeeqnT6NdvwUtmqFHOvPkH+d7iXXLHpnfN9YITmSffWjVW1k9d0iezw6neGDuwyK23yHxjUbVqtRUklMhIqTQWR160T8rfJysXH3a1mfzlZY4hc0aIedAIR3dvSh1XyqR+6RxdTzm4eLwRFNMnD5iuz7vqfj/2YwEAAPA7fwWbd38lfzfrV3LC/vLdK96WJ37s9a39bSPc7JaVP7fCjst7v5Hmb/9Wr/S3Tnli8S9kZ8ag0RNd8h9f2yvztrXrdW9t2w7JzK/9p3HPXjK9fl2yY9Ux+Q+9VmgiCxcagWOzPJBjxq9+0XpSjhiLyqsdvSLOwNG6V1oOicyfmns2EO/JA+zeGY/7AQBgAEycOLHHBcjFX8Hmp6/JVkeomfL1GfJezDoh/r03/1yefbRCPhexuqLyd5HMb/mieZz3/uNP5aYL9Gblwx+SlT+eae17erTrL9tH2vqmNyKycJr5fJyl43czZP8Sx6Cu996WF8zv43pSgG0jzc0WNdzNcfu1I/R2D+++JP9r5Tt6xfCxK+Q7L9xp3u69F8bJX3xMbzccWfkL+aHnU1av33R554zxOF+rkS9fqzcrL56WFwu000akWu5dNVYOLl438Nf0aW0VNb/X+qnOXhZrSFuqV6cXmPczVirs3hoAAAbQs88+m3cB8uGvYFM6RC7RVWX7vT+USXc8Kxu2vSzPv3uBfGL2DbLr6E3uE65zukym6XNISsdcKdM/YW01lQ2XaZ95n7Xv+ivk1g9bm02vnZHf6GqvO/tH+dkPfyFL5++UT328RSrK/03GP2Sfp6O8LcfOc0pnU1pQnPSVG+QvrgyZ9dIrr5H/+ZUPmnXTe6/Jvp/quot6/YbJRUNEhnzwCrnji+/T25U/yhu/1tUClOq1sSdeGCCRiKgrsqjzZ9J7W3r13Bbzfg73zu8OAACF5uRamTRprZzTp/r53LYvFerjKlD+CjafHiV/4+wReC8mP2k5IvNv3yvXjfyOvH/0bml+5qze2dsulI86v2O+HRNHX0evefupQ/Lpy1vkuhmH5aFNv5Znjv9RWvW5P73tN6+86zqP58rLL9I1y/DLL9Y1pUteesXZ2tvFl5Tomh/YvTYr0mY462fdzrlJk2t/vnrrOAAA9INXXnlFJk+eLD/60Y/0ljwNVBjwewhxPn6fPhdXsBmoK4jn3e6qz0vDj2pk6Y0lRszo7kzra+aJ/cMuz+94+cr38eUr4/HUOUSfPyb//ntrNTD0Bdl66M/ljTfvTBtu5vbRuT2bLiGXfnu+aQaineq16f67VC3T7hY5uGWvvpCnmoEsfXrn9DYpP1txu65ll2pnB6xFrourtq5ZYq5/dMQS676cw+bUbGZp15n5jl5mph/z4snJ47SuWZMx1H10xJd1LbuB+vkOL1P9XLmVV9bo2vmbNGyYTFrreJsvpDf+1mYZFwjIONcvkbFtXHO331GXfNqcK/2YnLPWBALj8ryI8E6p66vHBaDgqVAzf/58ueqqq+Smm27SW/M0coHs2bNAMn9z6iMDdb99oR+fy4Sa2bqWXaQi97nGrmAzUFcQ70k7Ndypcd9fyG/f/II8teVT8tW5H5Yx79cNlPd+I59Yuluv9I58H58lJn/IcV5JpuN1PvmyfDc5NOz90vTs12Ta2Evkw8Os4WGZvL4p9w/ay4euuMj1pf6lV60Hbj++3/z6j+bSEpQrr/CKk7n15Oebj95tVy2/MEJFuslrN8n8QytklHm+yyKRbxjrep/N3SY1w9onl23Rteyc7SILt8qJVSKLRqfOsxm1JSJTItbzmLy2TXbcvVlq9b7A6Fa5f5t7VrQ7jOI9K9oIGacnSZi8dr+svuFM8jh3ypRuz8u+QOcbb/zODD32Me1jpBuon+9rp9SZSbkdP/KErvWC6+fKmK114sw2BaVqvlS23JlncOgnVavlhGtK7gOpWfkyaG0eZwSg2oHtSQUwYJyhZuXKlXLBBc4ToNOoPzANGybDVBm7VJ6xt+k/Op1cO8nap4raZu6rl/pJeptR6veoG6W4bjNskn7PPylrjduk2u6R+uQ+zb5fvVxbn/k+lG6Pzdyqjuu43dPmRtnldSznc7cfS9rzq99jPW7n7TI+vzrj9XtmqYw1tk964IHka9jtMXk8l/Px5BPf07XsWo/l/kO+v4ai7XpKrp5ySDb85Hdy2vji/9mpY6Rh/WR5dtcY+bhuMhA+/FHneSWvy7e/+3tR84y1v/Gm7PmpMxxk9+rLzsFt78iTT1rH6Xz3tGzd9qa1Oae3peUH/ynv5jNr2qeHy3THe8Werx2S757okE7pkndPvCB//1XHWUQXDJfqT+u6L1XLugznrKhQ0f18Fqu9da6LmlXM6/bONupimpnb5N6WehzJkryAqEWFm9R+++Kd5XKN2cj5WLqX1H2VSf1Tzu0ef4uJzJMDjtum2rof7+B0tSyMjpGla7q/q3t+UOTxAeP5wZTcnvahmVOF3Ht/pSxamTYlRnqvTHK9VZrvXCQHDy6SUaq3574GY3ud1I2zelfqdhr7k3XHbb16X9J7Z3L2tuyUugztI/UHJHFitXnuGYDipYaYqaFmKsjYehRq1BduI8yM+f5pOX3aKIcflOv1HpPxPlq3dIx8X+0zyvfHvCi/UtufeV6uXqdv8/25smlGvXGklJEL9lj7zP32e/5IWRA12j6uW+55XDbNjcqCTF0aRkB48TbHfTTZIUHzfGzqM2KGGBuT9998o9HW81jqub8oUd3u9OHpsrVO34f9/MznVidi1/VjyPj81hmv3/UPymFj+56/+C/qSAaPxzRJ7ypA/go2kpATu4/J/Jt/KB+57FuiLuyoygVVz8svdQuRi+VzNzmnGOh7kWucl6Hsksf/7gdygXpcIx6XBd+P6e25lX3iUknNT5A6TvhPtsoXH8nSDXRx2HE7kYP3bZeLL7Rem8CCNr3Vw0VXyt/f6ziP5uVX5I4x35FwyaNy8ZgD8t2X9XZD5b2fkC+4T8FBf9q1JK3HZJ/UTd0sVavqejhZBs7bpGb5vszo9hcr7w8KQ9YPmCwfTOdq8jrZIbWpIJJVROq/ZQQI3atyYO4HjTeQI1LxrYQkdsyX9bV3itj1B1TwMMLIqGNyv937cmKmtNxpb18klTvs7Y5QokOTO8CowFQr4tUewKChhpipAKOCjAo0PQs1hpMn5Hnji/jCTF+0R46SMbJJZgyzgsuk5mYxm14/XW61A8mk22SuPC8nUtlK/2FJ/8FpxiaR509Y78uq7abHzWPteXyTzL0tyzd85+O66mp34FK8HtvJXbJVPJ6P17HUczdvrx+n6q16Rgc3+/mpts662qdken5eMj2mAuWzYJPLEKlpnihR5wQD/eDi6WPkXsfUyCml8md/2oOT6W8cLQ2f9f6RXHhBlh+Vcbv/kd9pCWmC8mdfmSgbp6p53zIbMfUGafnKB41XFwPJPcxsrhxZtZ9elAEyaeGD8rzHX988PyiyfcBk+2BS45tP78n818AsJt+7Wo6YQeQcVM00h0DKqAoj8Djqal/rC3JE1kutHVKMMHPw4DE5obYb4eher5SdPhTtQL0Rp07IsYPzZRqpHBjUVHBRAcYONz0KNXmZJM3mH45uk8fN91l3z4wn9V4+dqtMP2z/wcnZCzRJbpu7SR7fs0ce3zRXsuWa3M7hsaXTvSvJP6qd1sEtm6zPz//8FWyqr5NnH62Uu24bJpHLUg992BXvk5vvGiu7XpgjexZ8oP+/gA/5qDy4b4Isve0iGWZtkCsmjJIfvDBTWu5wDlPLZZj89x1T5Nt3/Yl8KPnf8xAZM+tT8tNHs32BHSb122pl3V2Xul6XCy+7UK6/Yqhey2DIB+SuLTPlV9vHyt0TLkzd7wUlEplwuXy15YtyfEuFlJNqBtatD/XR0DDvYXHIwQgd66ZvlTW79Pr5fFCcywdTLpF6+dbMFlm5Xa/3pm7nzKyTySeOmddiAoCecoabHoca1evxzFbZpf/KdHLXVuscG5vx3lxvjudVIeKwPHh9Ws+MooaUqT86XaHXFfuPUIb0Y5p/2JoxQ55/cOH5vVd7PTa5VabLUvEY7dyd+dzzbJsuy/MT+49rtpE9eEwFwF/BZuj75JOzr5ONW6fLiVe/ZHy5sy5C+favZsref/2EfE5fg8U2ea3jQpWx8ckhO5m2Jy94ae976hOOcxyy7TPywRVXSuPWGfK2uf8v5eXdn5HpxuNxX3BzWvKk2YyPYeh/kTv+9Qvy69/b+/5Snvv2GLl22nhH+7+Sdbfq9rZhH5L5//p51+vyx1dnyb8vsQapZX7OSkhG3vIJ2bB7Vup+f/8XcmL3JGnQ1/hxynasTM8XKDYjF0RFluoTVZVsHxSZZPtgUmGpx+fYpETq7xdZtCgVOFTPiq62bm9xBxHHvqwi10jlwUWSfgqPTJ4m8w+2yPa8u4hGSUXVenksr+FyAIqdCjJf//rXzdKznhojFKihv2OtXu+6F8e4/6hkvMcaO60e8WFjZev0dbJABRh9grzVwy7yfefsXyMXSHRMan/3Yxpf9K+/Xqbbb/jnyuuxjbTOc3l+hn5sRrEnD+jOeO6H3W1TExBkke35qX1zrVEEk777W3tj98dUwCHHX8EGKBr7pC7LTGPwA/WBOteq5vogzOgcP5jyMlnW7dBz3qkenNVHkkPI7jxWmTqnxdh3/3xreNm4Tf+pN2ZiHPPEajlSq4eiqWKeM6Puq1IWjdLb1BA1fYtu59iYEw5Y5/Ykj+NsbzBnRTOHuVm3ze98IQCD0qTmZI/3nuZma4pi4z3ZmqpY9YakesT32GN7XT3lupc8eRt1SMdt7GOqNsqeNbJUUn/IcrGP4TiWKX3dlOGxqbaO7c1/meVYaW1Pp993hnq252fv23P//Rnvp5AnDwgkYm0JXS8Y6qR3Rf3VH8Un/efbnz/v1jXTZdTiw3rNNkd2mLOMqbAxV9bfvUkSa89tCu38WfeV/3kyXu378/Hmb+eCEVL7iFHxfFy5nnf+r4saBmUvU0Wkq6vLURLmUu2Lx+PS2RmXjs4OicU6pL39rGzY2CLLVzSZx/GrpqYmaWxs1GsFYmedBB6bJol17r7hjNSMamqeAvP8GwDFoqGhQaLRqF5zmzhxoq7lb+/evbp2HlRvuJrHxfFlvif21A+Tx28r7C/3frB8WVRmzaiV0tKhUlISNks4HJZQKCihYMhYqhKUYNBZAq71QMD4Dpn8o5mxYqDHBoOG+sI9arHI6qPOc1XUdV2OywvndJY1utsnj6lQozyyO3ltHxS/nXWpD5eAmvAs31ADYFBSIaWnpVc4ezHOgerRINQULlewGagriNPOG+28nVO71o3ygPGFu2rV6rTzfsqkqe0NvU1fCyZD70dvP77v6GUumY/nfry9/fjOqd2u3bJexsrqVerioZvlMfvkekO+x8v3dRlelt8EweWVNbqGvjR5nbPnbJ3r3LucIvVygN4aABiUJtTM1rXsIhW5R6e4gs1AXUGcdt5o5+2c2rW2mmP4K6/uPrwp1U4Ng3Ke92Kv75Pmm9SV+N8Qc6rlmzZKq5wyt9nTLzvPlXm97aG04yjpxxa5Qy8t1v7UdM6qLDF7PKzjzTWvwp6a8lntcx/Tfh5quJ3zOOmP4/PG87Cfk3cby7m8zju3bRa5YYpMWXiLqLM71m9LXSU43+O5X5fMXjvlOv09o+NHntA1AABQaJ584nu6ll3rsdR3ikw4xwb9bkDOsWndKONGr5CDWc9HUUHBeX6Hta4CxfxtbdZMdLuWSGCq8eVd9Uoc3Wr19OhjV9ptuh3Ha1v39Z27qmWyY7Y761wV9/k/2Y9phRpruJ37sUna/XZ/TsdTtzln+tjma3ylEZzGy6JD9uO3eT0Pp1z7U1TPgL1MlcF5jg0AFKpM59hgcOurc2wKOtj85tXZctll2S8eCf8ZkGBjcE0ckNeJ7V5fsvPZdq5t0rgCx7kf03re5ecQkNInWXByBDubDn12YLKPkQxQJu/HmJJrfwrBBgAAfxqUkwd86PLvmV96KcVVbG++2a5r/SOycKsRnqxJA06UrzEeiz0UyxryVQhUGEg+LrNnqAdaT8oRY5E+3C5ydbnxb88mSHC+Vt6le+9O64vHjX/nyDQdYiK1U8wphY+82H2YGwAAQG8ryGCz+MvX6hqK2c237Oz3cGNLfnHfZp3k/oDHOSb9S/VUpM3aZj62HjDPIxorFenDySIRI2AclmN9OvPbKdm+5bDIDREZpbdIZKLMvEHk4Ja9wqRzAACgrxVksFn5tevNYWjXjvmAua6Wal0NVaL4v6if5ZjRw+T5o6fNcDOgbrVOcj94/CVrfaDYs4mdz3kumQJMpsCThavnyLNMl2bn/bTulRY1N8ChFTIq2UadY6O2be/BFekBAADOTcEORVPn1uz90a1mqHnu+bdl4ud2Ddhf99G71M/2x7snJ8PNgNLDt6rKr7TW/SwyUiqNRfrQL2uIWLlc04Ng09OhaK07thvhSU0UkNbu6DIzbLXsYDgaAADoWwU5eYCTCjMq1Khwg+KmenP6jHliu6TN0KWmbHbO3JV+4rrXiez5bTNnNHtumZx4ap5EkvejrqOT4dgZZy9L9eK4j6l0v1/rhP3cs6Llfk49oZ/ftV4TMuh9Yj/uXPeV/2Nh8gAAAPxpUE4eoNg9NzeOu0xvQTH6h/v/VNf6yK11svqGzVLrGk6lv3C7wk7vmLx2k8xPDstaJPINY13v8xSZJwe2zXFcp2aNVJgXuUxxH9N7wgPV03Jilcii0fo5ukJNH9HD0OZP9ZpGu0ym3D6223C01PN0ltRzyrUfAAAgnavHRl0ZPJ+L6NHOG+280c4b7bz1pJ26SGeuHpurx9wsx365hx4bAAAKhLPH5pbaO+XAU1ty9tioz/OTL+zP2mNT8EPRAMCLCjL2MluwUUu1j2Bznk6ulUl1Iuv2LJCRehMAAOdi0A5FAwDfUF/+hw2TYa4ySdae1Pt7g7qPSWvFPKSzfq56+ph7+/4BAOglBBsA6E3XPyiHT5+W08myRxb0VRfHyAWypzd6UHrymHvrPgEA6GUEGwDoF3uk3tkrono60ns8HOsn107y6EE5KWvrlsozzyyVscb2SQ884O49SbavN+5NbzP2r623tw+TenNHnpzHHGvcr73NvM+0x6IeYM7HoLcBANAHOMcGgC8NxDk2b731lq55u/QPLTLJDgA21Ruy51bZNWmsvBg9Lc2TjG3qy746X2WdSJ3zvBV7e3qPyJ56Gfb4bXJa3djZJlkfJWuGzRD5vnV8FYrGvhiV0wtPmI9njN5uHqfpauPxOI6vjuH5mN3H9HzMrserglsej8Eh1+sJAPCPSy+9VNdy66tzbHwUbKzrW6zXa5lY1wl5KUNb+3olXqzrbbTc3sdT46II8bszEAYq2GR943Z90XdSX/ofl9tON4v53d4rJDi326HBGTjMsJEWJrIdZ+yLEj18tTRlOr5aV7y2Kenbve7L2carvddjAAAUnZyfj2mYPECqZZ3rqubWdUFUkElta3N9sXTv26+vY5LhWhi71pkXUAR6jN8d9DYzFGyV6Yf1OS+HH5Tr9S4AAOBtEJ1jUyb131gmVbJZHlhzSm8zqCuzq4v/Td2sNwB54ncHebtKrr5+kzzudYLJMy/Kr3T15K6tjh6a6XKr7uJwbVcctzGNHCVjnlkqa/TxzfZzb7N6h86VecytskufANTtMdjsx9IXjwEAgB5g8gB1xXezRyfHleHhY2qomBFAFuzT6yk7Fxjbb9oojovi54/fHXjRJ9PbJ+tbJ/6PlAXrHpTnZ+ht9hCzkQtk3YPPywzdtu7FMVbPjLE9OiZ1nOR2Re2bu8m8zaTv/lZvnCTNh1PHH7t0jHw//YSWbDwfs3HM74+RpWM9HoPN+VjWXnV+jwEAgPPkCjbqSt75KPx2X9a1NK2tctBYVF5tDVcrnudLOy+pdmVSv3SOyCO704Yh7pPHHhG58MUNEtFbsvHP882uWNoNL6vStezKK2t0rR+oqZBd0yaroqdOdu5zDC0buWBPsu2e5ubkVMqTmu3bu7cr9r4999+f2u66b30uj9rmPLclfV3J9pgnNSe3JR9D2jGSj0XdIJ/HAACAw4Sa2bqWXaSiWtcycwWb19vyO1Gg8Nv9o6457ZM6NWTo7k2y7lZrS/E8X9p5cbW79RaZnz4McdduWS9zZMuvrXata6ZLQA0ty1DeeOMj0pxH146vXpcsCr3da6fUnylyO37kCV0DAACF5sknvqdr2bUe6z7yJl1RD0U7uHi844vpGqk42iaJtbnTHopRtUy72/id2LI3Oexs5zYVdG9JzpIXWbjVMdmEV9kq9fl07QC50IsBAECvK+pgk5wV7aiaNOCwLPrH3EkPxWvyl43fg0PbZbtKNq0b5YFHxsrqLxN0AQAAisHgmDxAneS9TZ1jMVfGOYciYXCJTJSZNxyWlh2npHXHdjl4wxSZ4uiByTUULVAyPa+haAAAAOh/gyPYKLc+JDvUUKTF46Vul96GQaZMptw+Vg5uWScrtxyW+UvnuSYNYCgaAACAfw2eYGOYvFZdpFNk/dQMF+lE0YvUTpGqQ5tl/aE5Mk1PIgEAAAD/G1TBxnmRzlp7WJF9kcWSubLeWLUnHGDIWpGKzJP77zaWjkkDzhm/OwAAAAUjkIi1JXQdKH4qjIzeLjOPMqzM7xIJ661LLVNFpKury1ES5lLti8fj0tkZl47ODonFOqS9/axs2Ngiy1c0mcfJx1tvvSWXXnqpXgMAAEpPPx+XL4vKrBm1Ulo6VEpKwmYJh8MSCgUlFAwZS1WCEgw6S8C1HggYQcb4xy7KIOuxwWDnNWkAAAAA/M8VbIrliuS080a7fbJy8WGpun2ia9IA/z0Pb4Ot3fCyKl3LrryyRtcAAEChmVAzW9eyi1TkvkQHQ9EA+BJD0QAAKAyFMhSNYAPAlwo52Ozdu1fXAADwt4kTJ+paZgSbQWOf1JXMlSOr9suBhWV6G4DzVejB5rrrrtNrAAD407PPPuurYOOjyQNUQHBeBd67FP5Uu/p5LNin1wEAAACcLx8Fm2pZ57oK/CaZb2ytWrXfsa2NXhEAAABgEGK6536nA9ra3DM7AAAAAMhPEQWbU9J8k/cQr50LjO03bZRWPQxMDVdrXTM9NYTN3Ofm2l+yRHbq7ecv9Rjc6/usx6/vk6vXAwAAAPkromBTJvVL54g8sjsthOyTxx4Rmb90XvLaJQcXj5c7ZbUevrbfqK2QUY5ApELNqMUiq49aw9t23L1Zaj3CT286uHiuHFuqh9Rtm2OsL5LmvrxDAAAAoIgU11C0W2+R+bJZHnD2duzaLetljky7Va8b1Hk5qXNx7EC0RgcJfRHHVaulXiehyV9eJlWHVsjKXda6uzfHq0zvcShRj2md/RjN53FYWnbQawP43ynZOH2EjBjRvUxfuVKmu7ZNl42e/9nvkyXTNxpHAgAAmbiCjf+vSF4t0+4WObj088nelZ3bNovcfYtM1utOyeNFIlJlBIlj6katJ+WIsai8OjUJwUcnfl0qdV2JLNyqe3vc5SMf+Yiub02GIi/f0ctcfrbidl3LrnB/HhbaeaOdt3zbDS+r0rXsyitrdG2glMm8rW3S1maU/ctk7Nhlsl/VjbJ1xp+IONbb9k+R7eOXGDEm5dTG6UbgmSvGOxkAAOfll7/8pa51l21fX5pQM1vXsotU5D4/3RVsXm87pGvZFXI7s3clFpHtZkjZKA88MlZWf9n7hfA8XmurHDQW66ememDeeON3st7YduTF7H8vzfd53KGXuXxy2RZdy24gXmeFdt5o56232712Sv2XmtvxI0/omg+UjZRyXbWVzdtqBSK9DgDAuXj33Xfl29/+tuzevVtvSVHb1D7Vpr89+cT3dC271mO5L5VSXEPRlMhEmXmDNYyrdcd2OXjDFJmSpfckZaxUqHZm743I/G3de2Ts4Wt9MRQNAGTfbtk8NiJX6lUAAHrLRRddJP/wD/8ge/bscYUbVVfb1D7Vxs+KL9hImUy5fawc3LJOVm457Jo0IBMzAEm5XGMGm5HmsLNsvTOZhqKlSvahaACQdHiFjLfPsVkTkf1b5xnvYgAA9L70cFNMoUYpwmBjBI/aKVJ1aLOsP+SeNMB28PhLumZo3Sh3mpMF1OnzcKrl3lVGMEqblax1zRJ6YQD0PvscGzXc7HCrON6dAADodc5wU0yhRinKYCOReXL/3cYyw6QBVc+tSQ0bG71CxDVLmtUjc2KVyKLRqeFlo7ZE8hzSBgDnoGyebN0kMneEe/IAAAB6mx1uiinUKD4ONtYV/J2BJCnHpAFyu30NG6t4HaPbcLOncg9p85b+OHOtK1meG4DiVf2Q7F923Ag3qWmfzVnRxq+Qw3rI2hJSDwCgF6hAU0yhRinKHpueTRoAAP1E9co4z6FJXzeYs6C1bZV5eqO1rqeDNspDuWe7BABgUCrCYKMvsHn7xHPsYQEAAADgN0UYbLIN42KIFwAAAFCMXMGmWK5ITjtvtPNGO2+F3m54mbriVG7llTW6BgAACs2Emtm6ll2kIvdY7EAi1pbQdQDwjUTCeutSy1QR6erqcpSEuVT74vG4dHbGpaOzQ2KxDmlvPysbNrbI8hVN5nHy8dZbb8mll16q1zLbu3evrgEA4G8TJ07Utczy/Xy0LV8WlVkzaqW0dKiUlITNEg6HJRQKSigYMpaqBCUYdJaAaz0QMIKM8Y9dFF8GG3Xl/1GLD+s12xzZEXtIJss+qSuZK0fSpnA+N714rF1LJDB1s14RqeqVxwcMXoUcbAAAGEwKJdj47hybnQtGGKFGZPVRx1TMsf2y+obj8kKhXkDTDDXHU4/56DKRxeNl3Bo9nysAAACA8+KvYGNen0b1dqyWeteUZ2VS/9TWtG2F4pQ0P7hZ5O6FqcenLyB6cMteKdQsBgAAAPiJz4JNqxw0FpVXZxrCZQ0dW2/UDi4eL4GSEUZZIjvN7aruLGq7zdqvelDUMDdr/5ek1vNYPfWSHDtkhLHyK/W6ZfLUOSKHtst2kg0AAABw3vwVbCIRUfMgrd+W6dLbajrnTTLfqKlzWKxhauq8G5Fp2+xha1bZcfdmI7i4g4oKMHfKat3mUdmR4Vg90npSjhgL7zB2WI4RbAAAAIDz5rNgM0++tWqsyCNzrR6UBZkCTrpqmXyrrmpmj4m4z8vJ94T+VK9OpjJdmu3j6l4mAAAAAH3H19M9u2dHyz0rWvfZ1MbK6qPq3JxMt8l8rLzp2dDmb2uTdc5wlWk7gLwU8qxoTU35HxMAgEIWjUZ1LTOme+5NOiRYPS4veYQRK6CsTwYZY1NyprI+DjatG2Xc6BVSSbABelWhB5vGxka9BgCAPzU0NPgq2LiGovn2iuS33mKeC3Pw+Evm6nfMfx127XaHmqTn9DK7n624XdcsPRqKFhkplbpqSz2PsVKRZSa3gnud09DOG+289Xa74WXqjLvcyitrdA0AABSaCTWzdS27SEW1rmXmCjavtx3StewKrp0+Qd+eeewO8998XKuX2X1y2RZds0QWbtWTCWQqzgB1pVQY39OcEx6o57Fz22aRG6bIlCzBpuBe5zS080Y7b73d7rVT+Z29dvzIE7oGAAAKzZNPfE/Xsms9lvvcen9NHqCGb3WbcvmUNN+1Qg7KHLnfHC5WLdPSrxFjzqZ2WFp22BfE3Cd1U41gkZPHsXqsTOqXzhF5ZI1jQgF9PZ7bJ0qWXAMAAAAgT/4KNrfWyeob1DTNzmFf42WRLJMTjqmYJ6/dJPMPrZBR5n4jCEXmyYFtcxzXo1kjFavUrGi5dTuW3t4jtz4kiW3lsmi0fsyjV4icz3k7AAAAAFyKY/IAAIMOkwcAANC3fD15AAAAAAD4EcEGAAaR1uZx5l+2xiVP+gMAoDgQbABgsNhZJ6OO3S+JE6u7TUMPAIDfEWwAoF/slDpzHPC41AyJRtAwxwaPa84986Ld1qPk3fsyeZ0k1tnTrAAAUFwINgDQLybLuhOrZf7qb6Wuc2UEjR3z58uOA/W5p35XocQ1UUKqHHBfeRgAgEHJFWz8ckVy7yv/21Mx75P3Gevj1tjXrMmsf5/HKWm+yXpc/Xu/KbTzRjtvhd5ueFmVrmVXXlmjawUgUi/Tjq1MTRvf2iyPVdybnKo+q97osQEAoMBMqJmta9lFKqp1LTNXsPHDFcl3LhghoxaLrD7qvNL/fll9w3F5QX+232EtcurX57FrnSzSu/v1fh1o54123gq93WunDupadsePPKFrhWHyvRXymA4iO1cek2n59rbQYwMAKEJPPvE9Xcuu9dg+XcvMX0PR7Cv2r1qdGsphKpP6p7ambSsQxmMep3qUpm7WGwAManavTU96awAAQE4+Czatov5GW3l1piv275O6krmy3qgdXDw+bYiacfO0IWzu4WrqttY2V7ubNuY+qTebyDw5YPYqbZL5elNu9mPZZw5fcz8Wa0ibva3bkLtdS1Ltk7cBUEhUr80Do3rQW9NL7KmeA6MWyfpFo6x6PhMXAADgA/4KNpGIqFH167dl6oqqlnU6QFSt2q+HqT1k/kVUhRXXELajy0SM8JMeDFQgulNW69vuN2orZNSC3F1ffeHg4rlybKl+vNvmiBwyHkvJIpFvuJ9D3S59A9U7NHWzzN+m9xtlx7WtckLvBlA4Klf3f29NpP5A96Fs+UxcAACAD/gs2MyTb60aK/LIXKs3Iu/AsU9WLj7sHsKmj3Vw8brUibwGFYgOLLR7hMqkfqkRKB5Zk5ye1XviAmeZnprK9Typx7LuVr1y6y06sDmfw0jzWhRHXtThzOzRGisVjm8pk9dawQ7AwEvvMalzvvkAAIDz4q9gY4gs3JrsjThRvsYRKFJDzrppPSlHjEX6ELbI1eXGv6lJBzyZvUSH5Zhu47x/7zKA5/rox7roLoafAYUovceES8oAANB7fBdsnJIhQw3Tks3yQPr5JjaPngxTWmjxPbtHyxyypgPfAA2jAwAAAPqTr4NNkh6mdfD4S9Z6ukwBJlPg6SbVpj+Hop2LVI+SmgLb2OAYRgcAAAAUq+IINnqoWVX5ldZ6uvRzUbTWF48b/5bLNVmCTeuO7Ub4SbUp6KFoLmVS/41lxdUjBQAAAGTgCjYFf0XyD1dI93NpTknzXSuM8DFH7jdP+q+WLReKHNyy13GeSbXca04UsCjVe9G6UcaYEwrUuU6ud/X6GG3uNNqUXLInrxPwe/v5/mzF7bqWnd1O9SYlZ0gzWKFsjkzTExAM2M+Ndp5o5y3fdsPL1ByJuZVX1ugaAAAoNBNqZutadpGKal3LzBVsCv6K5L/eKatv2Cy1rqFf42WRLJMTelpn5benN8n85HkmVhBSPS0nVoksGq1vN3qFfNI1A5ql6jnHhARGGzHanH3rWb03O8/nYV+g03F9nTfeeKP79Wc8fHLZFl3Lzm4XqZ0iR6bqx24Ua3rr1OtS8D9f2nminbfXTqmrWuV2/MgTugYAAArNk098T9eyaz2W+7zxQCLWltD1Qc66uOcRj7ADoPCoWcXsZaqIdHV1OUrCXKp98XhcOjvj0tHZIbFYh7S3n5UNG1tk+Yom8zj5eOutt+TSSy/Va5k1NTVJY2OjXgMAwJ8aGhokGo3qtczy/Xy0LV8WlVkzaqW0dKiUlITNEg6HJRQKSigYMpaqBCUYdJaAaz0QMIKMuoSCLkpxnGMDAAAAYFAj2AAAAADwPYJNUrWsi7UxDA0AAADwIYINAAAAAN8j2AAAAADwPYINAAAAAN8j2AAAAADwPVewKZYrktPOG+280c5bobcbXlala9mVV9boGgAAKDQTambrWnaRimpdy4wLdALwJS7QCQBA3+ICnQAAAADQzwg2AAAAAHyPYAMAAADA9wg2AAAAAHyPYAMAAADA9wg2AAAAAHyPYAMAAADA9wg2AAAAAHzPFWyK5YrktPNGO2+081bo7YaXVeladuWVNboGAAAKzYSa2bqWXaSiWtcyCyRibdbluwHARxIJ661LLVNFpKury1ES5lLti8fj0tkZl47ODonFOqS9/axs2Ngiy1c0mcfJR75XVm5qapLGxka9BgCAPzU0NEg0GtVrmeX7+Whbviwqs2bUSmnpUCkpCZslHA5LKBSUUDBkLFUJSjDoLAHXeiBgBBnjH7soDEUDAAAA4HsEGwAAAAC+R7ABAAAA4HsEGwAAAAC+R7ABAAAA4HsEGwAAAAC+R7ABAAAA4HsEGwAAAAC+5wo2xXJFctp5o5032nkr9HbDy6p0LbvyyhpdAwAAhWZCzWxdyy5SUa1rmQUSsTbr8t0A4COJhPXWpZapItLV1eUoCXOp9sXjcensjEtHZ4fEYh3S3n5WNmxskeUrmszj5CPfKys3NTVJY2OjXgMAwJ8aGhokGo3qtczy/Xy0LV8WlVkzaqW0dKiUlITNEg6HJRQKSigYMpaqBCUYdJaAaz0QMIKM8Y9dFIaiAQAAAPA9gg0AAAAA3yPYAAAAAPA9gg0AAAAA3yPYAAAAAPA9gg0AAAAA3yPYAAAAAPA9gg0AAAAA33MFm2K5IjntvNHOG+28FXq74WVVupZdeWWNrgEAgEIzoWa2rmUXqajWtcwCiVibdfluAPCRRMJ661LLVBHp6upylIS5VPvi8bh0dsalo7NDYrEOaW8/Kxs2tsjyFU3mcfKR75WVm5qapLGxUa8BAOBPDQ0NEo1G9Vpm+X4+2pYvi8qsGbVSWjpUSkrCZgmHwxIKBSUUDBlLVYISDDpLwLUeCBhBxvjHLgpD0QAAAAD4HsEGAAAAgO8RbAAAAAD4HsEGAAAAgO8RbAAAAAD4HsEGAAAAgO8RbAAAAAD4HsEGAAAAgO+5gk2xXJGcdt5o54123gq93fCyKl3LrryyRtcAAEChmVAzW9eyi1RU61pmgUSszbp8NwD4SCJhvXWpZaqIdHV1OUrCXKp98XhcOjvj0tHZIbFYh7S3n5UNG1tk+Yom8zj5yPfKyk1NTdLY2KjXAADwp4aGBolGo3ots3w/H23Ll0Vl1oxaKS0dKiUlYbOEw2EJhYISCoaMpSpBCQadJeBaDwSMIGP8YxeFoWgAAAAAfI9gAwAAAMD3CDYAAAAAfI9gAwAAAMD3CDYAAAAAfI9gAwAAAMD3CDYAAAAAfI9gAwAAAMD3XMGmWK5ITjtvtPNGO2+F3m54WZWuZVdeWaNrAACg0Eyoma1r2UUqqnUts0Ai1mZdvhsAfCSRsN661DJVRLq6uhwlYS7Vvng8Lp2dceno7JBYrEPa28/Kho0tsnxFk3mcfOR7ZeWmpiZpbGzUawAA+FNDQ4NEo1G9llm+n4+25cuiMmtGrZSWDpWSkrBZwuGwhEJBCQVDxlKVoASDzhJwrQcCRpAx/rGLwlA0AAAAAL5HsAEAAADgewQbAAAAAL5HsAEAAADgewQbAAAAAL5HsAEAAADgewQbAAAAAL5HsAEAAADge65gUyxXJKedN9p5o523Qm83vKxK17Irr6zRNQAAUGgm1MzWtewiFdW6llkgEWuzLt8NAD6SSFhvXWqZKiJdXV2OkjCXal88HpfOzrh0dHZILNYh7e1nZcPGFlm+osk8Tj7yvbJyU1OTNDY26jUAAPypoaFBotGoXsss389H2/JlUZk1o1ZKS4dKSUnYLOFwWEKhoISCIWOpSlCCQWcJuNYDASPIGP/YRWEoGgAAAADfI9gAAAAA8D2CDQAAAADfI9gAAAAA8D2CDQAAAADfI9gAAAAA8D2CDQAAAADfI9gAAAAA8D1XsCmWK5LTzhvtvNHOW6G3G15WpWvZlVfW6BoAACg0E2pm61p2kYpqXcsskIi1WZfvBgAfSSSsty61TBWRrq4uR0mYS7UvHo9LZ2dcOjo7JBbrkPb2s7JhY4ssX9FkHicf+V5ZuampSRobG/UaAAD+1NDQINFoVK9llu/no235sqjMmlErpaVDpaQkbJZwOCyhUFBCwZCxVCUowaCzBFzrgYARZIx/7KIwFA0AAACA7xFsAAAAAPgewQYAAACA7xFsAAAAAPgewQYAAACA7xFsAAAAAPgewQYAAACA7xFsAAAAAPieK9gUyxXJaeeNdt5o563Q2w0vq9K17Mora3QNAAAUmgk1s3Utu0hFta5lFkjE2qzLdwOAjyQS1luXWqaKSFdXl6MkzKXaF4/HpbMzLh2dHRKLdUh7+1nZsLFFlq9oMo+Tj3yvrNzU1CSNjY16DQAAf2poaJBoNKrXMsv389G2fFlUZs2oldLSoVJSEjZLOByWUCgooWDIWKoSlGDQWQKu9UDACDLGP3ZRGIoGAAAAwPcINgAAAAB8j2ADAAAAwPcINgAAAAB8j2ADAAAAwPcINgAAAAB8j2ADAAAAwPcINgAAAAB8zxVsiuWK5LTzRjtvtPNW6O2Gl1XpWnbllTW6BgAACs2Emtm6ll2kolrXMgskYm3W5bsBwEcSCeutSy1TRaSrq8tREuZS7YvH49LZGZeOzg6JxTqkvf2sbNjYIstXNJnHyUe+V1ZuamqSxsZGvQYAgD81NDRINBrVa5nl+/loW74sKrNm1Epp6VApKQmbJRwOSygUlFAwZCxVCUow6CwB13ogYAQZ4x+7KAxFAwAAAOB7BBsAAAAAvkewAQAAAOB7BBsAAAAAvkewAQAAAOB7BBsAAAAAvkewAQAAAOB7BBsAAAAAvucKNsVyRXLaeaOdN9p5K/R2w8uqdC278soaXQMAAIVmQs1sXcsuUlGta5kFErE26/LdAOAjiYT11qWWqSLS1dXlKAlzqfbF43Hp7IxLR2eHxGId0t5+VjZsbJHlK5rM4+Qj3ysrNzU1SWNjo14DAMCfGhoaJBqN6rXM8v18tC1fFpVZM2qltHSolJSEzRIOhyUUCkooGDKWqgQlGHSWgGs9EDCCjPGPXRSGogEAAADwPYINAAAAAN8j2AAAAADwPYINAAAAAN8j2AAAAADwPYINAAAAAN8j2AAAAADwPYINAAAAAN9zBZtiuSI57bzRzhvtvBV6u+FlVbqWXXllja4BAIBCM6Fmtq5lF6mo1rXMAolYm3X5bgDwkUTCeutSy1QR6erqcpSEuVT74vG4dHbGpaOzQ2KxDmlvPysbNrbI8hVN5nHyke+VlZuamqSxsVGvAQDgTw0NDRKNRvVaZvl+PtqWL4vKrBm1Ulo6VEpKwmYJh8MSCgUlFAwZS1WCEgw6S8C1HggYQcb4xy4KQ9EAAAAA+B7BBgAAAIDvEWwAAAAA+B7BBgAAAIDvEWwAAAAA+B7BBgAAAIDvEWwAAAAA+B7BBgAAAIDvuYJNsVyRnHbeaOeNdt4Kvd3wsipdy668skbXAABAoZlQM1vXsotUVOtaZoFErM26fDcA+EgiYb11qWWqiHR1dTlKwlyqffF4XDo749LR2SGxWIe0t5+VDRtbZPmKJvM4+cj3yspNTU3S2Nio1wAA8KeGhgaJRqN6LbN8Px9ty5dFZdaMWiktHSolJWGzhMNhCYWCEgqGjKUqQQkGnSXgWg8EjCBj/GMXhaFoAAAAAHyPYAMAAADA9wg2AAAAAHyPYAMAAADA9wg2AAAAAHyPYAMAAADA9wg2AAAAAHyPYAMAAADA91zBpliuSE47b7TzRjtvhd5ueFmVrmVXXlmjawAAoNBMqJmta9lFKqp1LbNAItZmXb4bAHwkkbDeutQyVUS6urocJWEu1b54PC6dnXHp6OyQWKxD2tvPyoaNLbJ8RZN5nHzke2XlpqYmaWxs1GsAAPhTQ0ODRKNRvZZZvp+PtuXLojJrRq2Ulg6VkpKwWcLhsIRCQQkFQ8ZSlaAEg84ScK0HAkaQMf6xi8JQNAAAAAC+R7ABAAAA4HsEGwAAAAC+R7ABAAAA4HsEGwAAAAC+R7ABAAAA4HsEGwAAAAC+R7ABAAAA4HuuYFMsVySnnTfaeaOdt0JvN7ysSteyK6+s0TUAAFBoJtTM1rXsIhXVupZZIBFrsy7fDQA+kkhYb11qmSoiXV1djpIwl2pfPB6Xzs64dHR2SCzWIe3tZ2XDxhZZvqLJPE4+8r2yclNTkzQ2Nuo1AAD8qaGhQaLRqF7LLN/PR9vyZVGZNaNWSkuHSklJ2CzhcFhCoaCEgiFjqUpQgkFnCbjWAwEjyBj/2EVhKBoAAAAA3yPYAAAAAPA9gg0AAAAA3yPYAAAAAPA9gg0AAAAA3yPYAAAAAPA9gg0AAAAA3yPYAAAAAPA9V7ApliuS084b7bzRzluhtxteVqVr2ZVX1ugaAAAoNBNqZutadpGKal3LLJCItVmX7wYAH0kkrLcutUwVka6uLkdJmEu1Lx6PS2dnXDo6OyQW65D29rOyYWOLLF/RZB4nH/leWbmpqUkaGxv1GgAA/tTQ0CDRaFSvZZbv56Nt+bKozJpRK6WlQ6WkJGyWcDgsoVBQQsGQsVQlKMGgswRc64GAEWSMf+yiMBQNAAAAgO8RbAAAAAD4HsEGAAAAgO8RbAAAAAD4HsEGAAAAgO8RbAAAAAD4HsEGAAAAgO8RbAAAAAD4nivYFMsVyWnnjXbeaOet0NsNL6vStezKK2t0DQAAFJoJNbN1LbtIRbWuZRZIxNqsy3cDgI8kEtZbl1qmikhXV5ejJMyl2hePx6WzMy4dnR0Si3VIe/tZ2bCxRZavaDKPk498r6zc1NQkjY2Neg0AAH9qaGiQaDSq1zLL9/PRtnxZVGbNqJXS0qFSUhI2SzgcllAoKKFgyFiqEpRg0FkCrvVAwAgyxj92URiKBgAAAMD3CDYAAAAAfI9gAwAAAMD3CDYAAAAAfI9gAwAAAMD3CDYAAAAAfI9gAwAAAMD3CDYAAAAAfM8VbIrliuS080Y7b7TzVujthpdV6Vp25ZU1ugYAAArNhJrZupZdpKJa1zILJGJt1uW7AcBHEgnrrUstU0Wkq6vLURLmUu2Lx+PS2RmXjs4OicU6pL39rGzY2CLLVzSZx8lHvldWbmpqksbGRr0GAIA/NTQ0SDQa1WuZ5fv5aFu+LCqzZtRKaelQKSkJmyUcDksoFJRQMGQsVQlKMOgsAdd6IGAEGeMfuygMRQMAAADgewQbAAAAAL5HsAEAAADgewQbAAAAAL5HsAEAAADgewQbAAAAAL5HsAEAAADgewQbAAAAAL7nCjbFckVy2nmjnTfaeSv0dsPLqnQtu/LKGl0DAACFZkLNbF3LLlJRrWuZBRKxNuvy3QDgI4mE9dallqki0tXV5SgJc6n2xeNx6eyMS0dnh8RiHdLeflY2bGyR5SuazOPkI98rKzc1NUljY6NeAwDAnxoaGiQajeq1zPL9fLQtXxaVWTNqpbR0qJSUhM0SDoclFApKKBgylqoEJRh0loBrPRAwgozxj10UhqIBAAAA8D2CDQAAAADfI9gAAAAA8D2CDQAAAADfI9gAAAAA8D2CDQAAAADfI9gAAAAA8D2CDQAAAADfcwWbYrkiOe280c4b7bwVervhZVW6ll15ZY2uAQCAQjOhZrauZRepqNa1zAKJWJt1+W4A8JFEwnrrUstUEenq6nKUhLlU++LxuHR2xqWjs0NisQ5pbz8rGza2yPIVTeZx8pHvlZWbmpqksbFRrwEA4E8NDQ0SjUb1Wmb5fj7ali+LyqwZtVJaOlRKSsJmCYfDEgoFJRQMGUtVghIMOkvAtR4IGEHG+McuCkPRAAAAAPgewQYAAACA7xFsAAAAAPgewQYAAACA7xFsAAAAAPgewQYAAACA7xFsAAAAAPgewQYAAACA77mCTbFckZx23mjnjXbeCr3d8LIqXcuuvLJG1wAAQKGZUDNb17KLVFTrWmaBRKzNunw3APhIImG9dallqoh0dXU5SsJcqn3xeFw6O+PS0dkhsViHtLeflQ0bW2T5iibzOPnI98rKTU1N0tjYqNcAAPCnhoYGiUajei2zfD8fbcuXRWXWjFopLR0qJSVhs4TDYQmFghIKhoylKkEJBp0l4FoPBIwgY/xjF4WhaAAAAAB8j2ADAAAAwPcINgAAAAB8j2ADAAAAwPcINgAAAAB8j2ADAAAAwPcINgAAAAB8j2ADAAAAwPdcwaZYrkhOO2+080Y7b4XebnhZla5lV15Zo2sAAKDQTKiZrWvZRSqqdS2zQCLWZl2+GwB8JJGw3rrUMlVEurq6HCVhLtW+eDwunZ1x6ejskFisQ9rbz8qGjS2yfEWTeZx85Htl5aamJmlsbNRrAAD4U0NDg0SjUb2WWb6fj7bly6Iya0atlJYOlZKSsFnC4bCEQkEJBUPGUpWgBIPOEnCtBwJGkDH+sYvCUDQAAAAAvkewAQAAAOB7BBsAAAAAvsc5NgB8qdDPsQEAoBj46Rwbgg0AXyrkYAMAwGDC5AEAAAAA0EsINgAAAAB8j2ADAAAAwPdcwaZYrkhOO2+080Y7b4XebnhZla5lV15Zo2sAAKDQTKiZrWvZRSqqdS0zJg8A4EtMHgAAQGFg8gAAAAAA6CUEGwAAAAC+x1A0AL40UEPRAABAd1ygEwDO0UAEGwAAcP44xwYAAAAAMiDYAAAAAPA9gg0AAAAA3yPYAAAAAPA9V7ApliuS084b7bzRzluhtxteVqVr2ZVX1ugaAAAoNBNqZutadpGKal3LjFnRAPgSs6IBAOBPzIoGAAAAABnQYwPAl+ixAYrfsK+9oWvI5PRXPqJr3vbu3atryGTixIm65o3XMLdcr2E6LtAJAA4EG6D4EWxyyyfYXHfddXoN6Z599tm8gg2vYWb5vIbpCDYA4ECwAYqfHWza/vZCc4mUEf9yxlwSbM4Pweb8FVKw4RwbAAAAAL5HsAEAAADgewQbAAAAAL5HsAEAAEDhOrVRpk/fKKf0KjzwGplcwaZYrkhOO2+080Y7b4XebnhZla5lV15Zo2sAkJ9TG6fLiBEjkmX6Rv11Mf3L474l5v4l+/T6YKGfd7IMuhegt52SjdON13GQBpMJNbN1LbtIRbWuZeYKNq+3HdK17GjnjXbeaOeNdt7ybffaqYO6lt3xI0/oGgDkpkLN+O1TZH9bm7SZZZOUrxifCjc2FXLmHpdl+9vkodzft4qGGfrmimxKvj5tskl2C9HmPJzaK9tljvG/7bJ3ECabJ5/4nq5l13os928ZQ9EAAABM+2TdCpFlq+dJmd4iUi0P7V8msn1v6q/pKtSM3y5T9m+VeamGg8Ap2bvdeH32P2S8KinVD1nr7p6u6WJmQd3LtXGJvd3Zw7VPliTb6+2qfXKbPkaRO6Ve1Cl1ckv5YePXTD9h83VbIktUT0766+O1Pcnq/XG/xoPjdVQINgAAAMqpk3J87BSZmB5WykZK+eFWeclc2S6LBmWoMaiehcPlMjLD8y6btzXZi9O2qVxWrNPfrg+vkNZb7O1zZPMaNeRKfQE3u36St3mo2vgSPr5VFtrH2D9Fti8q9uFZVlicYvzSVd8yRw47A/Th4xJZrV8L9brNXWL1jGXabiqTeQuNbbv1ln27ZfOchYPmd5VgAwAAkK/DxpfQZcaX9qL/wp3B2IhcqavdOHtb5m4WOX7Seo3GLpM6u4vnyoiMVUtz+JVju6KCpWyWufYxxq+Qw8lAWaTM10GH6epbZM5hx3A0Z8hW+4xX5+SrRj3TdpvattkaHrhv92aZc8vgGStJsAEAAFDMnhmP8xzMnhz9hV59qZz3kOyfsl3Gu8cAFb9Mr4+iQo3Zk6V7EvYvswJMTxkhKHV+kyruYW/FRg1DO3x4hYw3w9xcI9Y5hqOds2q5Zc5m2b1vn+zePEcGUa4h2AAAAFiqpW6ZpPXGqOFRK9RYIcd5N2rY1WpZdnxu90kFipp+fcY7hz4Zr9ASve7oSTC/sFtVb2UTZYqsEHu0mskMTmnbipoahnZY5jiG46mhZa7haDY1pEy9vpfrdVuG7dXGD+r43LlyfFldUQfDdAQbAAAATZ0nYvbG2MOhrCnAZGu3kxTKZN7WDDOmFTHz9Vl2PDVczChz5RapLpsnC8vtnocRsqi1PEePjfH6rVZfvlPHWbLPmqjBua2op0D2Go5nD0dTQ8uSPTlGUb+GW/WkFpm2O6ngOHasee7OYBJIxNoSug4AvpFIWG9dapkqIl1dXY6SMJdqXzwel87OuHR0dkgs1iHt7Wdlw8YWWb6iyTwOgMIz7GtvmMu2v73QXCJlxL+cMZenv/IRc5nJ3r175brrrtNrSPfss8/KxIkT9Zq3AXkN1dC+RSKr00NLpu3p1LWG1kRkf652vSCf1zDd8mVRmTWjVkpLh0pJSdgs4XBYQqGghIIhY6lKUIJBZwm41gMBI8gY/9hFoccGAAAAKCLmpAEL+z7UFBpXsCmWK5LTzhvtvNHOW6G3G15WpWvZlVfW6BoAAD5RNk+2eg4xy7A9TfVD/rlw7ISa2bqWXaQi9xNiKBoAX2IoGlD8GIqWGUPRekfBDkXzkUIaikawAeBLBBug+NnBBpkRbM4Pweb8EWwA4DwRbIDiR7DJLZ9gg+zyCTbIjmADAOfhfIPNe++1yyPf+D7BBgCAfpYebMLhIWawGTLECDTMigYA+bNDEQAAGBjOP0zazvfzmWADoOgRZAAA8Jf00JMPgg2Aomd3UQMAAH9wDjHLF8EGwKBD0AEAYGDZwcX5mXy+n88EGwCDEuEGAIDCkB5wzpUr2BTLFclp54123mjnrdDbDS+r0rXu7DdI9R5ZXlnj2gYAAAae+khWn8sTamYnP5/tz2q9arLXIxXVZj0bpnsG4Ev2CYX2yYVWsaZ7VnXnlM9q3Z7uOdYRM6d7Pns2Jusf+T9M9wwAQD9T0z3PnnWbnu65xJzyeciQIY7r2BjLUMgxvXNqqmcVbpjuGcCgkOmvOdYbX/c3QQAA0P/skJIq+X1GZ9tHsAFQlJxvjs43QVW330wBAMDASH1GO+rqf2qDa3+q5EKwAeBLzje49Dc8rzc/tc3sxg7Y3di53yABAEDfUJ/JariZKvbnuFW8P8cV53a7vU3VCTYAikb6+6D1ppd687OLPVYXAAAMDHUejT2Cwvxc1n947F6sz3GntNUkJg8A4FtqUgB7mSrdJxBQ29S6NYFAp55EoEOa12wybw8AAPrXX8+bKeHwEKOoiQNCMiRkTR5gjq5wFBViUnXrD5N22LGLYtYJNgD8SoUVe5kqqfX0mdFU3Q42nfFO6ehQpcMIPF1m6FHLVBiy2ltL5/F5ywQAIBtn6FC9MdbSCidq6JkKMirUqJnQrBJKzoZmt7MCjO7NcaxbhWADoMjYIcMZOtQmu+4MKM5pn+0Qo8KNCjlqXbWxg036bVTdeT8AACAzZ+BwBhR7Cmd7Ouf0KZ7tAOO8TapOsAFQxOyQ4QwcVj01HE2V9JCiih1u4l3uUKOK1c5qa98mdWzeMgEAyMYZOJzBRIWXVF2HmYBVd/bMpG7jDjRW3Tq+Ym+3666zZ4vliuS080Y7b7Tz5rd29hubzX6zG3nNeF1PbbPfNNUbqhrTq8qnb5zuGOurlqmiLhymtqtSc+tf6ouJZS+08y608y608y608y608y608y790c7+jFTFXr/5lr8w6mpb6vPUNfRM99T82aemJAOMM8TYn9v2Z3rZqM+adZu9z4keGwC+5ew9sXtTrJK+bhWrB6b75AKu3plEqsfGvl16AQAAmaXCibuoAGMuk5deUGHGHWqsZaqnp3txH99mrhNsAPiVM2Q4Q4dV7x5u7PBi/D8VZBxLZ5ixA45VUvdlLwEAgDc7cFjhIxVEnFM6O4eZpYca5zZ3ST+2VVfMdYINAD9LDxxWELHrqXVVUsHGCivOdXfdbmMU9T9jaR3PWgIAgBTn56MzeNhL839qaRS718aqO4NOKtSk77OKebjkul13LQk2APzM+WZqBhFHCFFVe5tXyTbczCrdjwkAAHJzhg6rOOvdizPweJfux7QltxNsAPiZM2ykBxC1VFVrmalk328fx1qaCwAAkIOdO9LDiHfJb799HOdSSW4j2ADwMzt0KOl1ZyCx11PbnMPPUre129jF3uZcAgCA7LyCiLOktllLe+hZartdzE3JdZtXnWADwPecgSNTGFELVXdu717MXcl1u+5cAgCA7tTnpDNsKMnA4Vim6ql1Z7H22evmqmu7c6m46gQbAH6XHjoyhRK1cG6zi/e6uUiuK846AADIzCt82JvUul0yr5tV1zbn0uZcJ9gA8L30wOEVRlJLc2GuO/d1b+deKo4qAADIwpk/MoUTtfSumwvXPpuzrjjXg3pp8tuVxjOhnTfaeaOdNz+1y/Ymd8XIG82l2mYVVXeuW2XkNePNpT3GVy27l4BcPeZmc5mr0M670M670M670M670M670M67DFS7UaNVO/fnaPrnrFqWjfqsubSK+zPa/vxWLr9yXLJu67ZOjw2AYuHsXVEyraeW5sKUvk/JdHsAAJBdthBi193b7GX3fUqudYVgA6BoZAoemcKKu64rhvTjZDouAADILlsgce5yb/euO3ltJ9gAKCqZQkiusNJ9XVcAAECvSM8i6eEk17ot43aCDYBilK2XJVeosWU7BgAAyF++ISVTOyXbPoVgA6Bo5RNMehKAAADAuTmfwKLk1YZgA2Aw6ElIIdAAANA38gkotp60VQg2AAYlwgsAAIWlp0EmHcEGADIg/AAA0DvON7Tkg2ADAAAAwPeCemny05XGs6GdN9p5o5032nmjnTfaeaOdN9p5o5032nmjXXf02AAAAADwPVePDQAAAAD4EcEGAAAAgO8RbAAAAAD4HsEGAAAAgO8RbAAAAAD4HsEGAAAAgO8RbAAAAAD4HsEGAAAAgO+5gk0xXHFUoZ032nmjnTfaeaOdN9p5o5032nmjnTfaeaNdd4FErC2h6wAAAADgSwxFAwAAAOBzIv8/8WcUzTsOjVAAAAAASUVORK5CYII=;" vertex="1" parent="1">
          <mxGeometry x="139" y="179" width="822" height="493" as="geometry" />
        </mxCell>
        <mxCell id="m5souKeyjKplHwAXcW8t-2" value="" style="rounded=0;whiteSpace=wrap;html=1;fillColor=none;strokeColor=#FF0000;strokeWidth=5;" vertex="1" parent="1">
          <mxGeometry x="480" y="310" width="440" height="20" as="geometry" />
        </mxCell>
        <mxCell id="m5souKeyjKplHwAXcW8t-3" value="&lt;b&gt;&lt;font style=&quot;font-size: 14px;&quot;&gt;Select &lt;i style=&quot;&quot;&gt;Simulations &lt;/i&gt;where these equations apply.&lt;/font&gt;&lt;/b&gt;&lt;div&gt;&lt;font style=&quot;font-size: 14px;&quot;&gt;Defaults to ALL.&lt;/font&gt;&lt;/div&gt;" style="shape=callout;whiteSpace=wrap;html=1;perimeter=calloutPerimeter;fillColor=#f8cecc;strokeColor=#b85450;direction=north;position2=1;base=30;size=60;position=0.43;" vertex="1" parent="1">
          <mxGeometry x="160" y="320" width="320" height="70" as="geometry" />
        </mxCell>
        <mxCell id="m5souKeyjKplHwAXcW8t-4" value="" style="rounded=0;whiteSpace=wrap;html=1;fillColor=none;strokeColor=#FF0000;strokeWidth=5;" vertex="1" parent="1">
          <mxGeometry x="480" y="340" width="440" height="240" as="geometry" />
        </mxCell>
        <mxCell id="m5souKeyjKplHwAXcW8t-5" value="&lt;span style=&quot;font-size: 14px;&quot;&gt;&lt;b&gt;Nutmeg Equation Content.&lt;/b&gt;&lt;/span&gt;&lt;div&gt;&lt;span style=&quot;font-size: 14px;&quot;&gt;Include as many lines as you want. See ngspice Manual, Section 13, for syntax reference.&lt;/span&gt;&lt;/div&gt;" style="shape=callout;whiteSpace=wrap;html=1;perimeter=calloutPerimeter;fillColor=#f8cecc;strokeColor=#b85450;direction=north;position2=1;base=30;size=60;position=0.43;" vertex="1" parent="1">
          <mxGeometry x="160" y="410" width="320" height="140" as="geometry" />
        </mxCell>
      </root>
    </mxGraphModel>
  </diagram>
</mxfile>
